# xmcd CD database file
#
# Track frame offsets:
#	150
#	17373
#	36699
#	54909
#	74467
#	92250
#	112172
#	128805
#	144393
#	156450
#	173508
#
# Disc length: 2633 seconds
#
# Revision: 0
# Processed by: cddbd v1.5.2PL0 Copyright (c) Steve Scherf et al.
# Submitted via: CDex 1.70beta3
#
DISCID=900a470b
DTITLE=ハッチハッチェルオーケストラ - 新録!ベスト盤
DYEAR=2015
DGENRE=Jazz
TTITLE0=花束とメロディー
TTITLE1=調子っぱずれに祝福あれ
TTITLE2=黄金の予感
TTITLE3=アタクシの葬式には
TTITLE4=イッツマイビール
TTITLE5=うわき者たち
TTITLE6=戦力外通告のテーマ
TTITLE7=つなわたりの唄
TTITLE8=カンを頼りに
TTITLE9=おかえり・ただいま
TTITLE10=できそこない行進曲
EXTD=YEAR: 2015
EXTT0=
EXTT1=
EXTT2=
EXTT3=
EXTT4=
EXTT5=
EXTT6=
EXTT7=
EXTT8=
EXTT9=
EXTT10=
PLAYORDER=
